# Blender 4.0.1
# www.blender.org
mtllib estrellaMODELO.mtl
o Simple_6_Point_Star
v 0.500000 0.000000 0.250000
v 0.000000 0.000000 0.250000
v 0.866025 -0.500000 0.250000
v 0.866025 0.500000 0.250000
v 0.250000 0.433013 0.250000
v 0.000000 1.000000 0.250000
v -0.250000 0.433013 0.250000
v -0.866025 0.500000 0.250000
v -0.500000 0.000000 0.250000
v -0.866026 -0.500000 0.250000
v -0.250000 -0.433013 0.250000
v 0.000000 -1.000000 0.250000
v 0.250000 -0.433013 0.250000
v 0.500000 -0.000000 -0.250000
v 0.866025 -0.500000 -0.250000
v 0.866025 0.500000 -0.250000
v 0.250000 0.433013 -0.250000
v 0.000000 1.000000 -0.250000
v -0.250000 0.433013 -0.250000
v -0.866025 0.500000 -0.250000
v -0.500000 0.000000 -0.250000
v -0.866026 -0.500000 -0.250000
v -0.250000 -0.433013 -0.250000
v 0.000000 -1.000000 -0.250000
v 0.250000 -0.433013 -0.250000
v 0.000000 -0.000000 -0.250000
vn -0.0000 -0.0000 1.0000
vn 0.8069 0.5907 -0.0000
vn 0.8069 -0.5907 -0.0000
vn -0.1081 0.9941 -0.0000
vn 0.9150 0.4034 -0.0000
vn -0.9150 0.4034 -0.0000
vn 0.1081 0.9941 -0.0000
vn -0.8069 -0.5907 -0.0000
vn -0.8069 0.5907 -0.0000
vn 0.1081 -0.9941 -0.0000
vn -0.9150 -0.4034 -0.0000
vn 0.9150 -0.4034 -0.0000
vn -0.1081 -0.9941 -0.0000
vn -0.0000 -0.0000 -1.0000
s 0
usemtl Color_65535
f 1//1 2//1 3//1
f 2//1 1//1 4//1
f 2//1 4//1 5//1
f 2//1 5//1 6//1
f 2//1 6//1 7//1
f 2//1 7//1 8//1
f 2//1 8//1 9//1
f 2//1 9//1 10//1
f 2//1 10//1 11//1
f 2//1 11//1 12//1
f 2//1 12//1 13//1
f 2//1 13//1 3//1
f 14//2 1//2 3//2
f 14//2 3//2 15//2
f 1//3 14//3 16//3
f 1//3 16//3 4//3
f 4//4 16//4 17//4
f 4//4 17//4 5//4
f 5//5 17//5 18//5
f 5//5 18//5 6//5
f 6//6 18//6 19//6
f 6//6 19//6 7//6
f 7//7 19//7 20//7
f 7//7 20//7 8//7
f 8//8 20//8 21//8
f 8//8 21//8 9//8
f 9//9 21//9 22//9
f 9//9 22//9 10//9
f 10//10 22//10 23//10
f 10//10 23//10 11//10
f 11//11 23//11 24//11
f 11//11 24//11 12//11
f 12//12 24//12 25//12
f 12//12 25//12 13//12
f 13//13 25//13 15//13
f 13//13 15//13 3//13
f 26//14 14//14 15//14
f 14//14 26//14 16//14
f 16//14 26//14 17//14
f 17//14 26//14 18//14
f 18//14 26//14 19//14
f 19//14 26//14 20//14
f 20//14 26//14 21//14
f 21//14 26//14 22//14
f 22//14 26//14 23//14
f 23//14 26//14 24//14
f 24//14 26//14 25//14
f 25//14 26//14 15//14
